# xmcd
#
# Track frame offsets:
# 150
# 21105
# 36172
# 60342
# 79574
# 98364
# 109414
# 129310
# 148430
# 164828
# 189240
# 202185
# 223848
# 254937
#
# Disc length: 3576 seconds
#
#
# Revision: 0
# Processed by: cddbd v1.5PL3 Copyright (c) Steve Scherf et al.
# Submitted via: FreeRIP 2.60 
#
DISCID=d20df60e
DTITLE=Peewee Bluesgang - adoring the blues
DYEAR=1997
DGENRE=Blues
TTITLE0=going down the road
TTITLE1=you give a little smile
TTITLE2=california
TTITLE3=rythm of your touch
TTITLE4=octopus
TTITLE5=do you know
TTITLE6=swamp
TTITLE7=julia
TTITLE8=i lost my baby
TTITLE9=our love
TTITLE10=raised up
TTITLE11=our blue side
TTITLE12=schoolyard blues
TTITLE13=wolf blues
EXTD=
EXTT0=
EXTT1=
EXTT2=
EXTT3=
EXTT4=
EXTT5=
EXTT6=
EXTT7=
EXTT8=
EXTT9=
EXTT10=
EXTT11=
EXTT12=
EXTT13=
PLAYORDER=
